<?xml version="1.0" encoding="utf-8"?>
<!-- Generator: Adobe Illustrator 23.0.0, SVG Export Plug-In . SVG Version: 6.00 Build 0)  -->
<svg version="1.1" id="Layer_1" xmlns="http://www.w3.org/2000/svg" xmlns:xlink="http://www.w3.org/1999/xlink" x="0px" y="0px"
	 viewBox="0 0 589 282" style="enable-background:new 0 0 589 282;" xml:space="preserve">
<style type="text/css">
	.st0{fill:none;stroke:#000000;}
	.st1{font-family:'TimesNewRomanPSMT';}
	.st2{font-size:20px;}
	.st3{stroke:#000000;}
	.st4{font-family:'MyriadPro-Regular';}
	.st5{font-size:12px;}
</style>
<ellipse class="st0" cx="144.5" cy="231.5" rx="30" ry="30"/>
<ellipse class="st0" cx="318.5" cy="231.5" rx="30" ry="30"/>
<ellipse class="st0" cx="228.5" cy="74.5" rx="30" ry="30"/>
<text transform="matrix(1 0 0 1 209.5 80.5006)" class="st1 st2">ERR</text>
<ellipse class="st0" cx="228.5" cy="74.5" rx="24" ry="24"/>
<ellipse class="st0" cx="500.5" cy="231.5" rx="30" ry="30"/>
<text transform="matrix(1 0 0 1 489.5 237.5006)" class="st1 st2">ID</text>
<ellipse class="st0" cx="500.5" cy="231.5" rx="24" ry="24"/>
<path class="st3" d="M49.5,231.5h65H49.5z"/>
<text transform="matrix(1 0 0 1 10.5 237.5006)" class="st1 st2">start</text>
<polygon points="114.5,231.5 106.5,226.5 106.5,236.5 "/>
<path class="st3" d="M174.5,231.5h114H174.5z"/>
<polygon points="288.5,231.5 280.5,226.5 280.5,236.5 "/>
<text transform="matrix(1 0 0 1 195.5 252.5006)" class="st1 st2">[a-zA-Z]</text>
<path class="st3" d="M158.7,205L214.3,101L158.7,205z"/>
<polygon points="214.3,101 206.2,105.6 215,110.4 "/>
<text transform="matrix(1 0 0 1 138.5 147.5006)" class="st1 st2">other</text>
<path class="st0" d="M305.3,204.7c-10.1-7.3-12.3-21.4-5-31.4c7.3-10.1,21.4-12.3,31.4-5s12.3,21.4,5,31.4c-1.4,1.9-3.1,3.6-5,5"/>
<text transform="matrix(1 0 0 1 262.5 155.5006)" class="st1 st2">[a-zA-Z_ 0-9]</text>
<polygon points="331.7,204.7 340.5,201.2 332.4,195.3 "/>
<path class="st3" d="M348.5,231.5h122H348.5z"/>
<polygon points="470.5,231.5 462.5,226.5 462.5,236.5 "/>
<text transform="matrix(1 0 0 1 383.5 222.5006)" class="st1 st2">other*</text>
<text transform="matrix(1 0 0 1 219 23)" class="st4 st5">return ( ERR )</text>
<text transform="matrix(1 0 0 1 512 199.9981)" class="st4 st5">return ( ID,val )</text>
</svg>
