<?xml version="1.0" encoding="utf-8"?>
<!-- Generator: Adobe Illustrator 23.0.0, SVG Export Plug-In . SVG Version: 6.00 Build 0)  -->
<svg version="1.1" id="Layer_1" xmlns="http://www.w3.org/2000/svg" xmlns:xlink="http://www.w3.org/1999/xlink" x="0px" y="0px"
	 viewBox="0 0 894 693" style="enable-background:new 0 0 894 693;" xml:space="preserve">
<style type="text/css">
	.st0{fill:none;stroke:#000000;}
	.st1{font-family:'TimesNewRomanPSMT';}
	.st2{font-size:20px;}
	.st3{stroke:#000000;}
	.st4{font-family:'MyriadPro-Regular';}
	.st5{font-size:12px;}
</style>
<ellipse class="st0" cx="595.5" cy="608.5" rx="30" ry="30"/>
<text transform="matrix(1 0 0 1 579.5 614.5006)" class="st1 st2">&amp;&amp;</text>
<ellipse class="st0" cx="595.5" cy="608.5" rx="24" ry="24"/>
<ellipse class="st0" cx="713.5" cy="123.5" rx="30" ry="30"/>
<text transform="matrix(1 0 0 1 710.5 129.5006)" class="st1 st2">-</text>
<ellipse class="st0" cx="713.5" cy="123.5" rx="24" ry="24"/>
<ellipse class="st0" cx="555.5" cy="494.5" rx="30" ry="30"/>
<ellipse class="st0" cx="810.5" cy="397.5" rx="30" ry="30"/>
<text transform="matrix(1 0 0 1 805.5 403.5006)" class="st1 st2">*</text>
<ellipse class="st0" cx="810.5" cy="397.5" rx="24" ry="24"/>
<ellipse class="st0" cx="810.5" cy="282.5" rx="30" ry="30"/>
<text transform="matrix(1 0 0 1 802.5 288.5006)" class="st1 st2">%</text>
<ellipse class="st0" cx="810.5" cy="282.5" rx="24" ry="24"/>
<ellipse class="st0" cx="176.5" cy="319.5" rx="30" ry="30"/>
<text transform="matrix(1 0 0 1 167.5 325.5006)" class="st1 st2">!=</text>
<ellipse class="st0" cx="176.5" cy="319.5" rx="24" ry="24"/>
<ellipse class="st0" cx="787.5" cy="482.5" rx="30" ry="30"/>
<text transform="matrix(1 0 0 1 782.5 488.5006)" class="st1 st2">^</text>
<ellipse class="st0" cx="787.5" cy="482.5" rx="24" ry="24"/>
<ellipse class="st0" cx="780.5" cy="179.5" rx="30" ry="30"/>
<text transform="matrix(1 0 0 1 774.5 185.5006)" class="st1 st2">+</text>
<ellipse class="st0" cx="780.5" cy="179.5" rx="24" ry="24"/>
<ellipse class="st0" cx="313.5" cy="469.5" rx="30" ry="30"/>
<ellipse class="st0" cx="169.5" cy="525.5" rx="30" ry="30"/>
<text transform="matrix(1 0 0 1 158.5 531.5006)" class="st1 st2">&gt;=</text>
<ellipse class="st0" cx="169.5" cy="525.5" rx="24" ry="24"/>
<ellipse class="st0" cx="210.5" cy="179.5" rx="30" ry="30"/>
<ellipse class="st0" cx="128.5" cy="107.5" rx="30" ry="30"/>
<text transform="matrix(1 0 0 1 116.5 113.5006)" class="st1 st2">&lt;--</text>
<ellipse class="st0" cx="128.5" cy="107.5" rx="24" ry="24"/>
<ellipse class="st0" cx="128.5" cy="248.5" rx="30" ry="30"/>
<text transform="matrix(1 0 0 1 117.5 254.5006)" class="st1 st2">&lt;=</text>
<ellipse class="st0" cx="128.5" cy="248.5" rx="24" ry="24"/>
<ellipse class="st0" cx="304.5" cy="248.5" rx="30" ry="30"/>
<ellipse class="st0" cx="500.5" cy="361.5" rx="30" ry="30"/>
<ellipse class="st0" cx="304.5" cy="361.5" rx="30" ry="30"/>
<ellipse class="st0" cx="435.5" cy="494.5" rx="30" ry="30"/>
<ellipse class="st0" cx="392.5" cy="602.5" rx="30" ry="30"/>
<text transform="matrix(1 0 0 1 388.5 608.5006)" class="st1 st2">||</text>
<ellipse class="st0" cx="392.5" cy="602.5" rx="24" ry="24"/>
<ellipse class="st0" cx="749.5" cy="560.5" rx="30" ry="30"/>
<text transform="matrix(1 0 0 1 746.5 566.5006)" class="st1 st2">/</text>
<ellipse class="st0" cx="749.5" cy="560.5" rx="24" ry="24"/>
<ellipse class="st0" cx="500.5" cy="594.5" rx="30" ry="30"/>
<ellipse class="st0" cx="406.5" cy="107.5" rx="30" ry="30"/>
<text transform="matrix(1 0 0 1 387.5 113.5006)" class="st1 st2">ERR</text>
<ellipse class="st0" cx="406.5" cy="107.5" rx="24" ry="24"/>
<ellipse class="st0" cx="304.5" cy="107.5" rx="30" ry="30"/>
<text transform="matrix(1 0 0 1 298.5 113.5006)" class="st1 st2">&lt;</text>
<ellipse class="st0" cx="304.5" cy="107.5" rx="24" ry="24"/>
<ellipse class="st0" cx="176.5" cy="412.5" rx="30" ry="30"/>
<text transform="matrix(1 0 0 1 173.5 418.5006)" class="st1 st2">!</text>
<ellipse class="st0" cx="176.5" cy="412.5" rx="24" ry="24"/>
<ellipse class="st0" cx="253.5" cy="594.5" rx="30" ry="30"/>
<text transform="matrix(1 0 0 1 247.5 600.5006)" class="st1 st2">&gt;</text>
<ellipse class="st0" cx="253.5" cy="594.5" rx="24" ry="24"/>
<path class="st3" d="M188,159.7L151,127.3L188,159.7z"/>
<polygon points="151,127.3 153.8,136.3 160.4,128.8 "/>
<text transform="matrix(1 0 0 1 174.5 134.5006)" class="st1 st2">-</text>
<path class="st3" d="M285.5,480.4l-88.1,34.3L285.5,480.4z"/>
<polygon points="197.5,514.6 206.7,516.4 203.1,507.1 "/>
<text transform="matrix(1 0 0 1 225.5 488.5006)" class="st1 st2">=</text>
<path class="st3" d="M500.5,106.5v225V106.5z"/>
<text transform="matrix(1 0 0 1 483.5 97.5006)" class="st1 st2">start</text>
<polygon points="500.5,331.5 505.5,323.5 495.5,323.5 "/>
<path class="st3" d="M474.5,346.5l-144-83L474.5,346.5z"/>
<polygon points="330.5,263.5 334.9,271.8 339.9,263.1 "/>
<text transform="matrix(1 0 0 1 407.5 295.5006)" class="st1 st2">&lt;</text>
<path class="st3" d="M274.5,248.5h-116H274.5z"/>
<polygon points="158.5,248.5 166.5,253.5 166.5,243.5 "/>
<text transform="matrix(1 0 0 1 210.5 239.5006)" class="st1 st2">=</text>
<path class="st3" d="M280.3,230.7l-45.6-33.5L280.3,230.7z"/>
<polygon points="234.7,197.3 238.2,206 244.1,198 "/>
<text transform="matrix(1 0 0 1 262.5 205.5006)" class="st1 st2">-</text>
<path class="st3" d="M474.5,376.5l-135,78L474.5,376.5z"/>
<polygon points="339.5,454.5 348.9,454.8 343.9,446.2 "/>
<text transform="matrix(1 0 0 1 390.5 406.5006)" class="st1 st2">&gt;</text>
<path class="st3" d="M470.5,361.5h-136H470.5z"/>
<polygon points="334.5,361.5 342.5,366.5 342.5,356.5 "/>
<text transform="matrix(1 0 0 1 399.5 352.5006)" class="st1 st2">!</text>
<path class="st3" d="M276,352.1l-71-23.3L276,352.1z"/>
<polygon points="205,328.9 211,336.1 214.2,326.6 "/>
<text transform="matrix(1 0 0 1 244.5 331.5006)" class="st1 st2">!</text>
<path class="st3" d="M487.3,388.5l-38.7,79.1L487.3,388.5z"/>
<polygon points="448.7,467.5 456.7,462.6 447.7,458.2 "/>
<text transform="matrix(1 0 0 1 475.5 444.5006)" class="st1 st2">|</text>
<path class="st3" d="M424.4,522.4l-20.8,52.3L424.4,522.4z"/>
<polygon points="403.6,574.6 411.2,569 401.9,565.3 "/>
<text transform="matrix(1 0 0 1 421.5 563.5006)" class="st1 st2">|</text>
<path class="st3" d="M512,389.2l32.1,77.6L512,389.2z"/>
<polygon points="544,466.8 545.6,457.5 536.4,461.3 "/>
<text transform="matrix(1 0 0 1 535.5 424.5006)" class="st1 st2">&amp;</text>
<path class="st3" d="M565.4,522.8l20.1,57.4L565.4,522.8z"/>
<polygon points="585.6,580.2 587.6,571 578.2,574.3 "/>
<text transform="matrix(1 0 0 1 583.5 549.5006)" class="st1 st2">&amp;</text>
<path class="st3" d="M520.5,339.1l173-193.3L520.5,339.1z"/>
<polygon points="693.5,145.9 684.4,148.5 691.9,155.2 "/>
<text transform="matrix(1 0 0 1 594.5 233.5006)" class="st1 st2">-</text>
<path class="st3" d="M525.7,345.2l229.7-149.3L525.7,345.2z"/>
<polygon points="755.3,195.9 745.9,196 751.4,204.4 "/>
<text transform="matrix(1 0 0 1 624.5 261.5006)" class="st1 st2">+</text>
<path class="st3" d="M529.6,354.1l251.9-64.2L529.6,354.1z"/>
<polygon points="781.4,289.9 772.4,287 774.9,296.7 "/>
<text transform="matrix(1 0 0 1 637.5 312.5006)" class="st1 st2">%</text>
<path class="st3" d="M530.3,365L780.7,394L530.3,365z"/>
<polygon points="780.7,394 773.3,388.2 772.2,398.1 "/>
<text transform="matrix(1 0 0 1 652.5 369.5006)" class="st1 st2">*</text>
<path class="st3" d="M523.9,380.2l202.1,161.5L523.9,380.2z"/>
<polygon points="726.1,541.8 722.9,532.9 716.7,540.7 "/>
<text transform="matrix(1 0 0 1 630.5 452.5006)" class="st1 st2">/</text>
<path class="st3" d="M528.1,373.2l231.7,97.7L528.1,373.2z"/>
<polygon points="759.9,470.8 754.4,463.1 750.5,472.3 "/>
<text transform="matrix(1 0 0 1 648.5 412.5006)" class="st1 st2">^</text>
<path class="st3" d="M451.9,519.7l32.3,49.7L451.9,519.7z"/>
<polygon points="484.1,569.3 484,559.9 475.6,565.4 "/>
<path class="st3" d="M541,520.8L515,568.2L541,520.8z"/>
<polygon points="515,568.2 523.2,563.6 514.4,558.8 "/>
<text transform="matrix(1 0 0 1 475.5 538.5006)" class="st1 st2">other</text>
<path class="st3" d="M490.1,333.4l-73.2-197.7L490.1,333.4z"/>
<polygon points="416.9,135.6 415,144.9 424.4,141.4 "/>
<text transform="matrix(1 0 0 1 404.5 248.5006)" class="st1 st2">other</text>
<path class="st3" d="M304.5,218.5v-81V218.5z"/>
<polygon points="304.5,137.5 299.5,145.5 309.5,145.5 "/>
<text transform="matrix(1 0 0 1 309.5 184.5006)" class="st1 st2">other</text>
<path class="st3" d="M276.6,372.6l-72.3,28.8L276.6,372.6z"/>
<polygon points="204.4,401.4 213.7,403.1 209.9,393.8 "/>
<text transform="matrix(1 0 0 1 244.5 408.5006)" class="st1 st2">other</text>
<path class="st3" d="M300.5,496.5l-34,70.9L300.5,496.5z"/>
<polygon points="266.5,567.5 274.5,562.4 265.4,558.1 "/>
<text transform="matrix(1 0 0 1 235.5 527.5006)" class="st1 st2">other</text>
<text transform="matrix(1 0 0 1 407.4998 73.0001)" class="st4 st5">return ( ERR )</text>
<text transform="matrix(1 0 0 1 139.5 77.5002)" class="st4 st5">return ( OP, AS )</text>
<text transform="matrix(1 0 0 1 29.8083 214.0007)" class="st4 st5">return ( OP,LEQ )</text>
<text transform="matrix(1 0 0 1 53.8083 319.5006)" class="st4 st5">return ( OP, DIF )</text>
<text transform="matrix(1 0 0 1 53.8083 412.5006)" class="st4 st5">return ( OP, NOT )</text>
<text transform="matrix(1 0 0 1 216.5002 638.5003)" class="st4 st5">return ( OP, GT )</text>
<text transform="matrix(1 0 0 1 46.8083 522.8088)" class="st4 st5">return ( OP, GEQ )</text>
<text transform="matrix(1 0 0 1 353.5 644.5)" class="st4 st5">return ( OP, OR )</text>
<text transform="matrix(1 0 0 1 571.5 652.5003)" class="st4 st5">return ( OP, AND )</text>
<text transform="matrix(1 0 0 1 481.5 600.5006)" class="st1 st2">ERR</text>
<ellipse class="st0" cx="500.5" cy="594.5" rx="24" ry="24"/>
<text transform="matrix(1 0 0 1 268.9468 73.0001)" class="st4 st5">return ( OP,LT )</text>
<text transform="matrix(1 0 0 1 467.9997 636.0752)" class="st4 st5">return ( ERR )</text>
<text transform="matrix(1 0 0 1 782.5002 544.501)" class="st4 st5">return ( OP, DIV )</text>
<text transform="matrix(1 0 0 1 798.4285 450.4961)" class="st4 st5">return ( OP, POW )</text>
<text transform="matrix(1 0 0 1 776.4387 361.5009)" class="st4 st5">return ( OP, MUL )</text>
<text transform="matrix(1 0 0 1 773.4998 243.5006)" class="st4 st5">return ( OP, MOD )</text>
<text transform="matrix(1 0 0 1 779.5001 143.5005)" class="st4 st5">return ( OP, PLUS )</text>
<text transform="matrix(1 0 0 1 683.4997 83.5005)" class="st4 st5">return ( OP, SUB )</text>
</svg>
