<?xml version="1.0" encoding="utf-8"?>
<!-- Generator: Adobe Illustrator 23.0.0, SVG Export Plug-In . SVG Version: 6.00 Build 0)  -->
<svg version="1.1" id="Layer_1" xmlns="http://www.w3.org/2000/svg" xmlns:xlink="http://www.w3.org/1999/xlink" x="0px" y="0px"
	 viewBox="0 0 533.4 600" style="enable-background:new 0 0 533.4 600;" xml:space="preserve">
<style type="text/css">
	.st0{fill:none;stroke:#000000;}
	.st1{font-family:'TimesNewRomanPSMT';}
	.st2{font-size:20px;}
	.st3{stroke:#000000;}
	.st4{font-family:'MyriadPro-Regular';}
	.st5{font-size:12px;}
</style>
<ellipse class="st0" cx="166.5" cy="296.5" rx="30" ry="30"/>
<ellipse class="st0" cx="76.5" cy="403.5" rx="30" ry="30"/>
<text transform="matrix(1 0 0 1 57.5 409.5)" class="st1 st2">ERR</text>
<ellipse class="st0" cx="76.5" cy="403.5" rx="24" ry="24"/>
<ellipse class="st0" cx="367.5" cy="334.5" rx="30" ry="30"/>
<ellipse class="st0" cx="367.5" cy="334.5" rx="24" ry="24"/>
<ellipse class="st0" cx="367.5" cy="242.5" rx="30" ry="30"/>
<ellipse class="st0" cx="367.5" cy="242.5" rx="24" ry="24"/>
<ellipse class="st0" cx="367.5" cy="543.5" rx="30" ry="30"/>
<ellipse class="st0" cx="367.5" cy="543.5" rx="24" ry="24"/>
<ellipse class="st0" cx="367.5" cy="449.5" rx="30" ry="30"/>
<ellipse class="st0" cx="367.5" cy="449.5" rx="24" ry="24"/>
<ellipse class="st0" cx="367.5" cy="133.5" rx="30" ry="30"/>
<ellipse class="st0" cx="367.5" cy="133.5" rx="24" ry="24"/>
<ellipse class="st0" cx="367.5" cy="46.5" rx="30" ry="30"/>
<ellipse class="st0" cx="367.5" cy="46.5" rx="24" ry="24"/>
<path class="st3" d="M58.5,296.5h78H58.5z"/>
<text transform="matrix(1 0 0 1 19.5 302.5)" class="st1 st2">start</text>
<polygon points="136.5,296.5 128.5,291.5 128.5,301.5 "/>
<path class="st3" d="M196,302.1l142,26.9L196,302.1z"/>
<polygon points="338,328.9 331.1,322.5 329.2,332.4 "/>
<text transform="matrix(1 0 0 1 260.5 337.5)" class="st1 st2">,</text>
<path class="st3" d="M147.2,319.5l-51.4,61.1L147.2,319.5z"/>
<polygon points="95.8,380.5 104.8,377.6 97.1,371.2 "/>
<text transform="matrix(1 0 0 1 74.5 341.5)" class="st1 st2">other</text>
<path class="st3" d="M195.5,288.7l143.1-38.4L195.5,288.7z"/>
<polygon points="338.5,250.3 329.5,247.5 332.1,257.2 "/>
<text transform="matrix(1 0 0 1 270.5 290.5)" class="st1 st2">;</text>
<path class="st0" d="M337.7,540.3c-103-18.4-177.1-109.4-174.2-214"/>
<polygon points="337.7,540.3 330.7,534 328.9,543.9 "/>
<text transform="matrix(1 0 0 1 198.5 485.5)" class="st1 st2">(</text>
<path class="st3" d="M190.4,314.7l153.3,116.7L190.4,314.7z"/>
<polygon points="343.6,431.3 340.3,422.5 334.2,430.5 "/>
<text transform="matrix(1 0 0 1 255.5 393.5)" class="st1 st2">)</text>
<path class="st3" d="M189.8,277.6l154.4-125.2L189.8,277.6z"/>
<polygon points="344.2,152.4 334.8,153.6 341.1,161.3 "/>
<text transform="matrix(1 0 0 1 252.5 206.5)" class="st1 st2">}</text>
<path class="st0" d="M169.4,266.7c14.7-95.6,79.4-176,169.6-210.9"/>
<polygon points="339,55.7 329.7,54 333.3,63.3 "/>
<text transform="matrix(1 0 0 1 210.5 130.5)" class="st1 st2">{</text>
<text transform="matrix(1 0 0 1 413.4256 133.5002)" class="st4 st5">return ( SEP,R_CURLY )</text>
<text transform="matrix(1 0 0 1 413.4257 46.5)" class="st4 st5">return ( SEP, L_CURLY )</text>
<text transform="matrix(1 0 0 1 413.4255 242.5001)" class="st4 st5">return ( SEP,S_COLON )</text>
<text transform="matrix(1 0 0 1 411.4257 334.4996)" class="st4 st5">return ( SEP,COLON)</text>
<text transform="matrix(1 0 0 1 411.4256 550.8603)" class="st4 st5">return ( SEP,L_PAR )</text>
<text transform="matrix(1 0 0 1 411.4257 458.1808)" class="st4 st5">return ( SEP,R_PAR )</text>
<text transform="matrix(1 0 0 1 42.4467 449.5)" class="st4 st5">return ( ERR )</text>
</svg>
